<svg width="14" height="22" viewBox="0 0 14 22" fill="none" xmlns="http://www.w3.org/2000/svg">
<path d="M6 1C5.44772 1 5 1.44772 5 2C5 2.55228 5.44772 3 6 3V1ZM8.34375 3C8.89603 3 9.34375 2.55228 9.34375 2C9.34375 1.44772 8.89603 1 8.34375 1V3ZM8 17.8594C8 17.3071 7.55228 16.8594 7 16.8594C6.44772 16.8594 6 17.3071 6 17.8594H8ZM6 17.8702C6 18.4225 6.44772 18.8702 7 18.8702C7.55228 18.8702 8 18.4225 8 17.8702H6ZM2.3125 1.625V2.625H11.6875V1.625V0.625H2.3125V1.625ZM11.6875 1.625V2.625C11.7824 2.625 11.8594 2.70195 11.8594 2.79688H12.8594H13.8594C13.8594 1.59738 12.887 0.625 11.6875 0.625V1.625ZM12.8594 2.79688H11.8594V19.2031H12.8594H13.8594V2.79688H12.8594ZM12.8594 19.2031H11.8594C11.8594 19.298 11.7824 19.375 11.6875 19.375V20.375V21.375C12.887 21.375 13.8594 20.4026 13.8594 19.2031H12.8594ZM11.6875 20.375V19.375H2.3125V20.375V21.375H11.6875V20.375ZM2.3125 20.375V19.375C2.21758 19.375 2.14062 19.298 2.14062 19.2031H1.14062H0.140625C0.140625 20.4026 1.11301 21.375 2.3125 21.375V20.375ZM1.14062 19.2031H2.14062V2.79688H1.14062H0.140625V19.2031H1.14062ZM1.14062 2.79688H2.14062C2.14062 2.70195 2.21758 2.625 2.3125 2.625V1.625V0.625C1.11301 0.625 0.140625 1.59738 0.140625 2.79688H1.14062ZM6 2V3H8.34375V2V1H6V2ZM7 17.8594H6V17.8702H7H8V17.8594H7ZM1.5 15.5V16.5H12.5V15.5V14.5H1.5V15.5Z" fill="white"/>
</svg>
